# xmcd
#
# Track frame offsets:
#	150
#	17194
#	34540
#	56918
#	74077
#	90988
#	112015
#	130096
#	146452
#	162988
#	180213
#	215047
#
# Disc length: 3105 seconds
#
# Revision: 0
# Processed by: cddbd v1.4PL0 Copyright (c) Steve Scherf et al.
# Submitted via: EasyCDDAExtractor 4.5.0.2
#
DISCID=a90c1f0c
DTITLE=F4 - DISCOBEATLES
DYEAR=1900
DGENRE=
TTITLE0=SHE LOVES YOU
TTITLE1=TICKET TO RIDE
TTITLE2=HELP!
TTITLE3=A HARD DAY'S NIGHT
TTITLE4=DAY TRIPPER
TTITLE5=GET BACK
TTITLE6=LOVE ME DO
TTITLE7=PAPERBACK WRITER
TTITLE8=ELEANOR RIGBY
TTITLE9=REVOLUTION
TTITLE10=LET IT BE
TTITLE11=BONUS TRACK
EXTD=
EXTT0=
EXTT1=
EXTT2=
EXTT3=
EXTT4=
EXTT5=
EXTT6=
EXTT7=
EXTT8=
EXTT9=
EXTT10=
EXTT11=
PLAYORDER=
